<?xml version="1.0" standalone="no"?>
<!DOCTYPE svg PUBLIC "-//W3C//DTD SVG 20010904//EN"
 "http://www.w3.org/TR/2001/REC-SVG-20010904/DTD/svg10.dtd">
<svg version="1.0" xmlns="http://www.w3.org/2000/svg"
 width="500.000000pt" height="500.000000pt" viewBox="0 0 500.000000 500.000000"
 preserveAspectRatio="xMidYMid meet">
<metadata>
Created by potrace 1.14, written by Peter Selinger 2001-2017
</metadata>
<g transform="translate(0.000000,500.000000) scale(0.100000,-0.100000)"
fill="#000000" stroke="none">
<path d="M2200 4975 c-143 -21 -174 -26 -181 -31 -12 -7 -9 -1834 2 -1834 6 0
33 13 62 29 29 15 104 55 167 87 63 33 117 61 120 64 3 3 30 18 60 33 30 16
78 40 105 55 62 32 62 32 105 9 19 -11 80 -43 135 -72 55 -29 116 -61 135 -71
19 -11 37 -22 38 -26 2 -5 8 -8 14 -8 5 0 57 -27 116 -59 59 -32 147 -80 196
-106 49 -26 129 -69 178 -96 48 -27 90 -49 93 -49 3 0 25 -12 49 -27 l44 -28
-5 -285 c-7 -416 -9 -2270 -2 -2282 3 -5 20 -1 40 11 19 12 44 25 56 30 51 23
266 169 357 242 79 64 212 194 293 286 32 36 64 72 71 79 6 7 12 16 12 21 0 5
9 15 20 23 11 8 20 20 20 26 0 7 4 14 8 16 31 12 275 430 280 478 0 3 15 37
32 75 29 64 95 267 106 324 3 12 11 51 19 85 47 201 68 557 45 746 -4 36 -11
92 -14 125 -13 115 -87 413 -127 510 -7 17 -13 35 -14 40 -6 23 -76 175 -116
250 -54 101 -138 238 -186 303 -21 28 -47 63 -58 79 -58 81 -199 229 -340 358
-62 56 -254 194 -353 254 -196 117 -482 237 -662 277 -19 4 -39 9 -45 10 -26
7 -175 35 -215 40 -25 3 -67 9 -95 14 -74 13 -467 9 -565 -5z"/>
<path d="M1340 4708 c-52 -28 -120 -67 -150 -86 -75 -48 -172 -114 -186 -127
-7 -5 -41 -32 -77 -60 -86 -66 -296 -278 -381 -385 -75 -95 -176 -244 -226
-335 -33 -60 -120 -233 -120 -239 0 -2 -8 -21 -17 -42 -9 -22 -18 -43 -19 -49
-1 -5 -11 -35 -22 -65 -20 -52 -68 -214 -76 -256 -3 -10 -9 -39 -14 -64 -51
-225 -63 -621 -27 -855 3 -16 7 -41 9 -55 27 -170 92 -400 153 -545 54 -127
169 -347 185 -353 4 -2 8 -7 8 -12 0 -7 58 -101 77 -125 5 -5 34 -44 64 -85
31 -41 69 -88 84 -105 69 -76 176 -183 238 -239 85 -76 298 -236 315 -236 6 0
12 -3 12 -7 0 -5 10 -13 23 -19 12 -6 55 -30 96 -54 133 -78 356 -170 541
-224 47 -13 89 -23 224 -51 11 -3 40 -7 65 -10 25 -3 73 -9 106 -14 76 -11
459 -12 545 -1 106 14 157 20 181 25 67 13 87 17 115 26 l31 10 -1 1226 -1
1227 -37 20 c-21 12 -61 34 -90 50 -29 16 -63 34 -75 40 -13 6 -23 14 -23 19
0 4 -5 7 -10 7 -6 0 -27 10 -48 23 -38 24 -155 89 -206 115 -33 17 -2 31 -357
-163 l-236 -130 1 -687 c1 -453 -2 -688 -9 -689 -5 0 -134 -1 -286 -2 l-275
-2 0 1808 c1 995 -1 1813 -4 1817 -3 5 -48 -15 -100 -42z"/>
</g>
</svg>
